<svg width="24" height="24" viewBox="0 0 24 24" fill="none" xmlns="http://www.w3.org/2000/svg">
<path d="M2 5.26999L3.28 3.99999L20 20.72L18.73 22L13.9 17.17L11.29 19.78C10.352 20.7166 9.08058 21.2427 7.755 21.2427C6.42942 21.2427 5.15803 20.7166 4.22 19.78C3.28338 18.842 2.75731 17.5706 2.75731 16.245C2.75731 14.9194 3.28338 13.648 4.22 12.71L5.71 11.22C5.7 12.04 5.83 12.86 6.11 13.65L5.64 14.12C5.35966 14.3973 5.13711 14.7275 4.98522 15.0914C4.83333 15.4553 4.75512 15.8457 4.75512 16.24C4.75512 16.6343 4.83333 17.0247 4.98522 17.3886C5.13711 17.7525 5.35966 18.0827 5.64 18.36C5.91731 18.6403 6.24747 18.8629 6.61137 19.0148C6.97527 19.1667 7.36568 19.2449 7.76 19.2449C8.15432 19.2449 8.54473 19.1667 8.90863 19.0148C9.27253 18.8629 9.60269 18.6403 9.88 18.36L12.5 15.76L10.88 14.15C10.87 14.39 10.77 14.64 10.59 14.83C10.2 15.22 9.56 15.22 9.17 14.83C8.67025 14.3311 8.28246 13.7316 8.03245 13.0712C7.78243 12.4108 7.67592 11.7047 7.72 11L2 5.26999ZM12.71 4.21999C13.648 3.28336 14.9194 2.75729 16.245 2.75729C17.5706 2.75729 18.842 3.28336 19.78 4.21999C20.7166 5.15801 21.2427 6.42941 21.2427 7.75499C21.2427 9.08056 20.7166 10.352 19.78 11.29L18.29 12.78C18.3 11.96 18.17 11.14 17.89 10.36L18.36 9.87999C18.6403 9.60267 18.8629 9.27251 19.0148 8.90862C19.1667 8.54472 19.2449 8.15431 19.2449 7.75999C19.2449 7.36566 19.1667 6.97525 19.0148 6.61135C18.8629 6.24746 18.6403 5.9173 18.36 5.63999C18.0827 5.35965 17.7525 5.13709 17.3886 4.9852C17.0247 4.83332 16.6343 4.75511 16.24 4.75511C15.8457 4.75511 15.4553 4.83332 15.0914 4.9852C14.7275 5.13709 14.3973 5.35965 14.12 5.63999L10.79 8.96999L9.38 7.54999L12.71 4.21999ZM13.41 9.16999C13.8 8.77999 14.44 8.77999 14.83 9.16999C15.4801 9.81897 15.9389 10.6346 16.1559 11.5272C16.3729 12.4198 16.3397 13.355 16.06 14.23L14.28 12.46C14.23 11.78 13.94 11.11 13.41 10.59C13.3129 10.499 13.2355 10.389 13.1825 10.2669C13.1296 10.1448 13.1023 10.0131 13.1023 9.87999C13.1023 9.74689 13.1296 9.6152 13.1825 9.49308C13.2355 9.37096 13.3129 9.26099 13.41 9.16999Z" fill="#2F8F9D"/>
</svg>
